<svg xmlns="http://www.w3.org/2000/svg" width="1280" height="80" viewBox="0 0 1280 80" role="img" aria-labelledby="page-banner-title page-banner-description">
  <title id="page-banner-title">Codex(W)UI</title>
  <desc id="page-banner-description">Codex(W)UI documentation. Compact identity banner derived from the repository README banner.</desc>
  <defs>
    <linearGradient id="background" x2="1" y2="1">
      <stop stop-color="#101d36" />
      <stop offset="1" stop-color="#182e4e" />
    </linearGradient>
    <linearGradient id="accent">
      <stop stop-color="#739fff" />
      <stop offset="1" stop-color="#63d5a5" />
    </linearGradient>
  </defs>
  <rect width="1280" height="80" rx="12" fill="url(#background)" />
  <path d="M880 0v320M1000 0v320M1120 0v320M1240 0v320M850 80h430M850 160h430M850 240h430" stroke="#8da5cd" stroke-opacity=".1" />
  <g transform="translate(-8.88 -34.24) scale(1.16)">
    <rect x="44" y="40" width="48" height="48" rx="13" fill="#2f6feb" />
    <path d="m64 53-9 11 9 11m9-22 9 11-9 11" fill="none" stroke="#fff" stroke-width="3.5" stroke-linecap="round" stroke-linejoin="round" />
    <path d="M65 64h7" stroke="#63d5a5" stroke-width="4" stroke-linecap="round" />
  </g>
  <g transform="translate(1126 13) scale(0.27)">
    <rect width="302" height="198" rx="15" fill="#142640" stroke="#435f88" />
    <path d="M0 40h302M69 40v158M229 40v158" stroke="#435f88" />
    <circle cx="20" cy="20" r="4" fill="#63d5a5" />
    <path d="M35 20h102" stroke="#769bd0" stroke-width="5" stroke-linecap="round" />
    <rect x="12" y="57" width="45" height="21" rx="5" fill="#2f6feb" />
    <path d="M18 97h31m-31 18h24m-24 18h31" stroke="#769bd0" stroke-width="4" stroke-linecap="round" />
    <rect x="83" y="57" width="132" height="48" rx="7" fill="#263f64" />
    <path d="M96 73h83m-83 15h62" stroke="#9bbce9" stroke-width="4" stroke-linecap="round" />
    <rect x="83" y="117" width="132" height="63" rx="7" fill="#1b3347" stroke="#63d5a5" stroke-opacity=".45" />
    <path d="m97 137 5 5 10-11m-15 28 5 5 10-11M124 139h75m-75 22h50" fill="none" stroke="#63d5a5" stroke-width="3" stroke-linecap="round" stroke-linejoin="round" />
    <path d="M244 63h42m-42 18h29m-29 28h42m-42 18h35m-35 28h42" stroke="#769bd0" stroke-width="4" stroke-linecap="round" />
  </g>
  <path d="M44 77h1192" stroke="url(#accent)" stroke-width="3" />
  <text x="118" y="61.76" font-size="64" font-weight="700" fill="#fff" font-family="DejaVu Sans, sans-serif">Codex(W)UI</text>
</svg>
